{"title":"Despicable.Me.2010.BRrip.720p.x264.Dual-Audio[HiNDi-EnG]-SnowDoN","uid":6067153,"size":575684030,"categoryP":"video","categoryS":"hd___movies","magnet":"?xt=urn:btih:6ea3d5a4a6312a80933a0a8bbec21dc54120c4cb&amp;dn=Despicable.Me.2010.BRrip.720p.x264.Dual-Audio%5BHiNDi-EnG%5D-SnowDoN&amp;tr=udp%3A%2F%2Ftracker.openbittorrent.com%3A80&amp;tr=udp%3A%2F%2Fopen.demonii.com%3A1337&amp;tr=udp%3A%2F%2Ftracker.coppersurfer.tk%3A6969&amp;tr=udp%3A%2F%2Fexodus.desync.com%3A6969","seeders":0,"leechers":1,"uploader":"3385VKSH","files":-1,"time":1293434801,"description":"General\nComplete name                    : Despicable.Me.2010.BDrip.XviD.HiNDi-DuBBeD.AC3-[SnowDoN-HDDR].avi\nFormat                           : AVI\nFormat/Info                      : Audio Video Interleave\nFile size                        : 703 MiB\nDuration                         : 1h 34mn\nOverall bit rate                 : 1 036 Kbps\nWriting application              : AVI-Mux GUI 1.17.8, Aug 30 2008  12:36:58\nWriting library                  : VirtualDub build 32839/release\n\nVideo\nID                               : 0\nFormat                           : MPEG-4 Visual\nFormat profile                   : Advanced Simple@L5\nFormat settings, BVOP            : Yes\nFormat settings, QPel            : No\nFormat settings, GMC             : No warppoints\nFormat settings, Matrix          : Default (H.263)\nMuxing mode                      : Packed bitstream\nCodec ID                         : XVID\nCodec ID/Hint                    : XviD\nDuration                         : 1h 34mn\nBit rate                         : 899 Kbps\nWidth                            : 640 pixels\nHeight                           : 272 pixels\nDisplay aspect ratio             : 2.35:1\nFrame rate                       : 23.976 fps\nResolution                       : 8 bits\nColorimetry                      : 4:2:0\nScan type                        : Progressive\nBits/(Pixel*Frame)               : 0.215\nStream size                      : 610 MiB (87%)\nWriting library                  : XviD 1.2.1 (UTC 2008-12-04)\n\nAudio\nID                               : 1\nFormat                           : AC-3\nFormat/Info                      : Audio Coding 3\nCodec ID                         : 2000\nDuration                         : 1h 34mn\nBit rate mode                    : Constant\nBit rate                         : 128 Kbps\nChannel(s)                       : 6 channels\nChannel positions                : Front: L C R, Surround: L R, LFE\nSampling rate                    : 48.0 KHz\nStream size                      : 86.6 MiB (12%)\nAlignment                        : Aligned on interleaves\nInterleave, duration             : 42 ms (1.00 video frame)\nInterleave, preload duration     : 512 ms\n\n\n &lt;a href=&quot;\nhttp://img267.imageshack.us/img267/315/despicableme2010bdripxv.png&quot; rel=&quot;nofollow&quot; target=&quot;_NEW&quot;&gt;\nhttp://img267.imageshack.us/img267/315/despicableme2010bdripxv.png&lt;/a&gt;\n &lt;a href=&quot;\nhttp://img266.imageshack.us/img266/315/despicableme2010bdripxv.png&quot; rel=&quot;nofollow&quot; target=&quot;_NEW&quot;&gt;\nhttp://img266.imageshack.us/img266/315/despicableme2010bdripxv.png&lt;/a&gt;\n &lt;a href=&quot;\nhttp://img148.imageshack.us/img148/315/despicableme2010bdripxv.png&quot; rel=&quot;nofollow&quot; target=&quot;_NEW&quot;&gt;\nhttp://img148.imageshack.us/img148/315/despicableme2010bdripxv.png&lt;/a&gt;","torrent":{"xt":"urn:btih:6ea3d5a4a6312a80933a0a8bbec21dc54120c4cb","amp;dn":"Despicable.Me.2010.BRrip.720p.x264.Dual-Audio%5BHiNDi-EnG%5D-SnowDoN","amp;tr":["udp%3A%2F%2Ftracker.openbittorrent.com%3A80","udp%3A%2F%2Fopen.demonii.com%3A1337","udp%3A%2F%2Ftracker.coppersurfer.tk%3A6969","udp%3A%2F%2Fexodus.desync.com%3A6969"],"infoHash":"6ea3d5a4a6312a80933a0a8bbec21dc54120c4cb","infoHashBuffer":{"type":"Buffer","data":[110,163,213,164,166,49,42,128,147,58,10,139,190,194,29,197,65,32,196,203]},"announce":[],"urlList":[]}}